# xmcd
#
# Track frame offsets:
#	150
#	12412
#	33655
#	46255
#	49780
#	70930
#	87992
#	90902
#	115211
#	132761
#	155711
#
# Disc length: 2309 seconds
#
# Revision: 0
# Processed by: cddbd v1.5.2PL0 Copyright (c) Steve Scherf et al.
# Submitted via: VUPlayer 2.49
#
DISCID=8b09030b
DTITLE=Kawa - 100%
DYEAR=2010
DGENRE=folck
TTITLE0=[one] coffee time
TTITLE1=stoje tu po to...
TTITLE2=w tobie sila
TTITLE3=[two] coffee time
TTITLE4=skrzydla
TTITLE5=w obecnosci twej
TTITLE6=[three[ coffee time
TTITLE7=stoj!
TTITLE8=kim jestes?
TTITLE9=co czujesz?
TTITLE10=[four] coffee time
EXTD=
EXTT0=
EXTT1=
EXTT2=
EXTT3=
EXTT4=
EXTT5=
EXTT6=
EXTT7=
EXTT8=
EXTT9=
EXTT10=
PLAYORDER=
